<svg width="40" height="40" viewBox="0 0 40 40" fill="none" xmlns="http://www.w3.org/2000/svg">
<mask id="path-1-inside-1_11_322" fill="white">
<path d="M17.8083 29.9999C19.0167 25.6249 23.2417 22.4999 28.1083 23.0166C32.7417 23.5083 36.425 27.4166 36.6583 32.0666C36.7167 33.2916 36.55 34.4666 36.1917 35.5583C35.975 36.2249 35.325 36.6666 34.6167 36.6666H9.79833C5.59167 36.6666 2.43667 32.8174 3.26167 28.6924L8.33333 3.33325H18.3333L21.6667 9.16659L14.525 14.2749L12.5 11.6666"/>
</mask>
<path d="M28.1083 23.0166L28.0028 24.011L28.0028 24.011L28.1083 23.0166ZM36.6583 32.0666L37.6572 32.019L37.6571 32.0165L36.6583 32.0666ZM36.1917 35.5583L35.2415 35.2464L35.2406 35.2492L36.1917 35.5583ZM3.26167 28.6924L4.24225 28.8885L4.24225 28.8885L3.26167 28.6924ZM8.33333 3.33325V2.33325H7.51352L7.35275 3.13714L8.33333 3.33325ZM18.3333 3.33325L19.2016 2.83711L18.9137 2.33325H18.3333V3.33325ZM21.6667 9.16659L22.2484 9.97993L22.983 9.45454L22.5349 8.67045L21.6667 9.16659ZM14.525 14.2749L13.7351 14.8882L14.3247 15.6476L15.1068 15.0883L14.525 14.2749ZM18.7722 30.2661C19.8551 26.3456 23.6404 23.5479 28.0028 24.011L28.2139 22.0222C22.8429 21.452 18.1783 24.9043 16.8444 29.7337L18.7722 30.2661ZM28.0028 24.011C32.1448 24.4505 35.4508 27.9567 35.6596 32.1167L37.6571 32.0165C37.3992 26.8765 33.3385 22.566 28.2139 22.0222L28.0028 24.011ZM35.6595 32.1142C35.712 33.2172 35.5619 34.2704 35.2415 35.2464L37.1418 35.8701C37.5381 34.6627 37.7213 33.3659 37.6572 32.019L35.6595 32.1142ZM35.2406 35.2492C35.1678 35.4732 34.9249 35.6666 34.6167 35.6666V37.6666C35.7251 37.6666 36.7822 36.9766 37.1427 35.8673L35.2406 35.2492ZM34.6167 35.6666H9.79833V37.6666H34.6167V35.6666ZM9.79833 35.6666C6.22284 35.6666 3.54098 32.3949 4.24225 28.8885L2.28109 28.4963C1.33235 33.24 4.9605 37.6666 9.79833 37.6666V35.6666ZM4.24225 28.8885L9.31391 3.52936L7.35275 3.13714L2.28108 28.4963L4.24225 28.8885ZM8.33333 4.33325H18.3333V2.33325H8.33333V4.33325ZM17.4651 3.82939L20.7984 9.66272L22.5349 8.67045L19.2016 2.83711L17.4651 3.82939ZM21.0849 8.35324L13.9432 13.4616L15.1068 15.0883L22.2484 9.97993L21.0849 8.35324ZM15.3149 13.6617L13.2899 11.0533L11.7101 12.2798L13.7351 14.8882L15.3149 13.6617Z" fill="#E11B19" mask="url(#path-1-inside-1_11_322)"/>
<path d="M14.5333 14.2749L18.3333 28.3333M17.8083 29.9999C19.0167 25.6249 23.2417 22.4999 28.1083 23.0166C32.7417 23.5083 36.425 27.4166 36.6583 32.0666C36.7167 33.2916 36.55 34.4666 36.1917 35.5583C35.975 36.2249 35.325 36.6666 34.6167 36.6666H9.79833C5.59167 36.6666 2.43667 32.8174 3.26167 28.6924L8.33333 3.33325H18.3333L21.6667 9.16659L14.525 14.2749L12.5 11.6666L17.8083 29.9999Z" stroke="#E11B19" stroke-width="4" stroke-miterlimit="2" stroke-linecap="round" stroke-linejoin="round"/>
</svg>
